<svg xmlns="http://www.w3.org/2000/svg" viewBox="0 0 500 500"><g id="freepik--background-complete--inject-27"><rect y="382.4" width="500" height="0.25" style="fill:#ebebeb"></rect><rect x="52.46" y="391.92" width="33.12" height="0.25" style="fill:#ebebeb"></rect><rect x="171.14" y="392.05" width="53.86" height="0.25" style="fill:#ebebeb"></rect><rect x="105.77" y="397.08" width="19.19" height="0.25" style="fill:#ebebeb"></rect><rect x="426.77" y="396.96" width="19.23" height="0.25" style="fill:#ebebeb"></rect><rect x="387.57" y="396.96" width="30.29" height="0.25" style="fill:#ebebeb"></rect><rect x="328.33" y="395.31" width="42.56" height="0.25" style="fill:#ebebeb"></rect><path d="M237,337.8H43.91a5.71,5.71,0,0,1-5.7-5.71V60.66A5.71,5.71,0,0,1,43.91,55H237a5.71,5.71,0,0,1,5.71,5.71V332.09A5.71,5.71,0,0,1,237,337.8ZM43.91,55.2a5.46,5.46,0,0,0-5.45,5.46V332.09a5.46,5.46,0,0,0,5.45,5.46H237a5.47,5.47,0,0,0,5.46-5.46V60.66A5.47,5.47,0,0,0,237,55.2Z" style="fill:#ebebeb"></path><path d="M453.31,337.8H260.21a5.72,5.72,0,0,1-5.71-5.71V60.66A5.72,5.72,0,0,1,260.21,55h193.1A5.71,5.71,0,0,1,459,60.66V332.09A5.71,5.71,0,0,1,453.31,337.8ZM260.21,55.2a5.47,5.47,0,0,0-5.46,5.46V332.09a5.47,5.47,0,0,0,5.46,5.46h193.1a5.47,5.47,0,0,0,5.46-5.46V60.66a5.47,5.47,0,0,0-5.46-5.46Z" style="fill:#ebebeb"></path><path d="M308.94,247.46H86.74a10.18,10.18,0,0,1-10.28-11.28L88.57,99.29A12.61,12.61,0,0,1,100.84,88H323.05a10.19,10.19,0,0,1,10.28,11.28L321.22,236.18A12.61,12.61,0,0,1,308.94,247.46Z" style="fill:#ebebeb"></path><path d="M292.7,229.64H70.49a10.19,10.19,0,0,1-10.28-11.28L72.32,81.47A12.62,12.62,0,0,1,84.6,70.19H306.8a10.18,10.18,0,0,1,10.28,11.28L305,218.36A12.6,12.6,0,0,1,292.7,229.64Z" style="fill:#f5f5f5"></path><path d="M306.8,70.19H84.6A12.62,12.62,0,0,0,72.32,81.47H317.08A10.18,10.18,0,0,0,306.8,70.19Z" style="fill:#ebebeb"></path><path d="M125,95.69H89.19a2.78,2.78,0,0,1-2.81-3.09h0a3.43,3.43,0,0,1,3.36-3.09h35.79a2.78,2.78,0,0,1,2.82,3.09h0A3.43,3.43,0,0,1,125,95.69Z" style="fill:#fff"></path><path d="M195.68,95.69H137.83A2.78,2.78,0,0,1,135,92.6h0a3.44,3.44,0,0,1,3.37-3.09h57.85A2.78,2.78,0,0,1,199,92.6h0A3.43,3.43,0,0,1,195.68,95.69Z" style="fill:#fff"></path><path d="M142.92,106h-48a2.78,2.78,0,0,1-2.81-3.1h0a3.44,3.44,0,0,1,3.36-3.09h48a2.79,2.79,0,0,1,2.82,3.09h0A3.45,3.45,0,0,1,142.92,106Z" style="fill:#fff"></path><path d="M232.2,106H155.77a2.79,2.79,0,0,1-2.82-3.1h0a3.45,3.45,0,0,1,3.36-3.09h76.44a2.79,2.79,0,0,1,2.82,3.09h0A3.45,3.45,0,0,1,232.2,106Z" style="fill:#fff"></path><path d="M193.86,116.28H136a2.79,2.79,0,0,1-2.82-3.09h0a3.45,3.45,0,0,1,3.37-3.1h57.85a2.79,2.79,0,0,1,2.81,3.1h0A3.44,3.44,0,0,1,193.86,116.28Z" style="fill:#fff"></path><path d="M152.65,146.57h-48a2.79,2.79,0,0,1-2.82-3.09h0a3.45,3.45,0,0,1,3.37-3.09h48a2.78,2.78,0,0,1,2.82,3.09h0A3.45,3.45,0,0,1,152.65,146.57Z" style="fill:#fff"></path><path d="M241.93,146.57H165.49a2.79,2.79,0,0,1-2.81-3.09h0a3.43,3.43,0,0,1,3.36-3.09h76.44a2.78,2.78,0,0,1,2.82,3.09h0A3.45,3.45,0,0,1,241.93,146.57Z" style="fill:#fff"></path><path d="M142.26,201.55H106.47a3.45,3.45,0,0,0-3.37,3.09h0a2.79,2.79,0,0,0,2.82,3.1h35.79a3.45,3.45,0,0,0,3.37-3.1h0A2.79,2.79,0,0,0,142.26,201.55Z" style="fill:#fff"></path><path d="M213,201.55H155.11a3.45,3.45,0,0,0-3.37,3.09h0a2.79,2.79,0,0,0,2.82,3.1h57.85a3.45,3.45,0,0,0,3.36-3.1h0A2.79,2.79,0,0,0,213,201.55Z" style="fill:#fff"></path><path d="M162,191.26H114a3.45,3.45,0,0,0-3.37,3.09h0a2.78,2.78,0,0,0,2.82,3.09h48a3.45,3.45,0,0,0,3.37-3.09h0A2.79,2.79,0,0,0,162,191.26Z" style="fill:#fff"></path><path d="M251.3,191.26H174.86a3.44,3.44,0,0,0-3.36,3.09h0a2.78,2.78,0,0,0,2.81,3.09h76.44a3.45,3.45,0,0,0,3.37-3.09h0A2.79,2.79,0,0,0,251.3,191.26Z" style="fill:#fff"></path><path d="M126.78,150.68H104.31a3.45,3.45,0,0,0-3.37,3.09h0a2.79,2.79,0,0,0,2.82,3.09h22.48a3.44,3.44,0,0,0,3.36-3.09h0A2.78,2.78,0,0,0,126.78,150.68Z" style="fill:#fff"></path><path d="M216.06,150.68H139.63a3.44,3.44,0,0,0-3.37,3.09h0a2.78,2.78,0,0,0,2.82,3.09h76.44a3.44,3.44,0,0,0,3.36-3.09h0A2.78,2.78,0,0,0,216.06,150.68Z" style="fill:#fff"></path><path d="M298.06,75.83a3.85,3.85,0,0,1-3.75,3.45,3.12,3.12,0,0,1-3.15-3.45,3.84,3.84,0,0,1,3.76-3.44A3.11,3.11,0,0,1,298.06,75.83Z" style="fill:#fff"></path><path d="M284.74,75.83A3.85,3.85,0,0,1,281,79.28a3.12,3.12,0,0,1-3.15-3.45,3.84,3.84,0,0,1,3.76-3.44A3.11,3.11,0,0,1,284.74,75.83Z" style="fill:#fff"></path><path d="M271.42,75.83a3.85,3.85,0,0,1-3.75,3.45,3.1,3.1,0,0,1-3.14-3.45,3.83,3.83,0,0,1,3.75-3.44A3.1,3.1,0,0,1,271.42,75.83Z" style="fill:#fff"></path><path d="M338.09,364.33H186.33a7,7,0,0,1-7-7.71l8.28-93.49a8.61,8.61,0,0,1,8.38-7.71H347.72a7,7,0,0,1,7,7.71l-8.27,93.49A8.61,8.61,0,0,1,338.09,364.33Z" style="fill:#ebebeb"></path><path d="M347.72,255.42H196a8.61,8.61,0,0,0-8.38,7.71H354.74A7,7,0,0,0,347.72,255.42Z" style="fill:#fafafa"></path><path d="M217.15,345.14H192.7a2.37,2.37,0,0,0-2.3,2.11h0a1.9,1.9,0,0,0,1.93,2.11h24.44a2.35,2.35,0,0,0,2.3-2.11h0A1.9,1.9,0,0,0,217.15,345.14Z" style="fill:#fff"></path><path d="M265.43,345.14H225.92a2.35,2.35,0,0,0-2.3,2.11h0a1.9,1.9,0,0,0,1.93,2.11h39.51a2.34,2.34,0,0,0,2.29-2.11h0A1.89,1.89,0,0,0,265.43,345.14Z" style="fill:#fff"></path><path d="M230.64,338.11H197.87a2.37,2.37,0,0,0-2.3,2.11h0a1.9,1.9,0,0,0,1.93,2.11h32.77a2.34,2.34,0,0,0,2.29-2.11h0A1.89,1.89,0,0,0,230.64,338.11Z" style="fill:#fff"></path><path d="M291.62,338.11H239.41a2.37,2.37,0,0,0-2.3,2.11h0a1.9,1.9,0,0,0,1.93,2.11h52.2a2.35,2.35,0,0,0,2.3-2.11h0A1.91,1.91,0,0,0,291.62,338.11Z" style="fill:#fff"></path><path d="M266.67,331.08H227.16a2.37,2.37,0,0,0-2.3,2.11h0a1.91,1.91,0,0,0,1.93,2.12H266.3a2.36,2.36,0,0,0,2.3-2.12h0A1.91,1.91,0,0,0,266.67,331.08Z" style="fill:#fff"></path><path d="M242.19,310.39H209.42a2.36,2.36,0,0,0-2.3,2.12h0a1.91,1.91,0,0,0,1.93,2.11h32.77a2.35,2.35,0,0,0,2.29-2.11h0A1.9,1.9,0,0,0,242.19,310.39Z" style="fill:#fff"></path><path d="M303.17,310.39H251a2.37,2.37,0,0,0-2.3,2.12h0a1.91,1.91,0,0,0,1.93,2.11h52.2a2.35,2.35,0,0,0,2.3-2.11h0A1.91,1.91,0,0,0,303.17,310.39Z" style="fill:#fff"></path><path d="M241.74,272.84H217.29a1.89,1.89,0,0,1-1.92-2.11h0a2.35,2.35,0,0,1,2.3-2.11h24.44a1.9,1.9,0,0,1,1.93,2.11h0A2.36,2.36,0,0,1,241.74,272.84Z" style="fill:#fff"></path><path d="M290,272.84H250.51a1.9,1.9,0,0,1-1.93-2.11h0a2.36,2.36,0,0,1,2.3-2.11h39.51a1.9,1.9,0,0,1,1.93,2.11h0A2.35,2.35,0,0,1,290,272.84Z" style="fill:#fff"></path><path d="M254,279.87H221.22a1.91,1.91,0,0,1-1.93-2.11h0a2.36,2.36,0,0,1,2.3-2.11h32.77a1.9,1.9,0,0,1,1.93,2.11h0A2.37,2.37,0,0,1,254,279.87Z" style="fill:#fff"></path><path d="M315,279.87h-52.2a1.91,1.91,0,0,1-1.93-2.11h0a2.36,2.36,0,0,1,2.3-2.11h52.21a1.9,1.9,0,0,1,1.92,2.11h0A2.35,2.35,0,0,1,315,279.87Z" style="fill:#fff"></path><path d="M225,307.59H209.67a1.91,1.91,0,0,1-1.93-2.11h0a2.37,2.37,0,0,1,2.3-2.12h15.35a1.91,1.91,0,0,1,1.93,2.12h0A2.37,2.37,0,0,1,225,307.59Z" style="fill:#fff"></path><path d="M286,307.59h-52.2a1.89,1.89,0,0,1-1.92-2.11h0a2.35,2.35,0,0,1,2.29-2.12h52.21a1.9,1.9,0,0,1,1.92,2.12h0A2.35,2.35,0,0,1,286,307.59Z" style="fill:#fff"></path><path d="M341.75,259.27a2.64,2.64,0,0,1-2.57,2.36,2.12,2.12,0,0,1-2.14-2.36,2.61,2.61,0,0,1,2.56-2.35A2.12,2.12,0,0,1,341.75,259.27Z" style="fill:#ebebeb"></path><path d="M332.65,259.27a2.63,2.63,0,0,1-2.56,2.36,2.13,2.13,0,0,1-2.15-2.36,2.62,2.62,0,0,1,2.56-2.35A2.12,2.12,0,0,1,332.65,259.27Z" style="fill:#ebebeb"></path><path d="M323.55,259.27a2.62,2.62,0,0,1-2.56,2.36,2.12,2.12,0,0,1-2.14-2.36,2.61,2.61,0,0,1,2.56-2.35A2.11,2.11,0,0,1,323.55,259.27Z" style="fill:#ebebeb"></path></g><g id="freepik--Shadow--inject-27"><ellipse id="freepik--path--inject-27" cx="250" cy="416.24" rx="193.89" ry="11.32" style="fill:#f5f5f5"></ellipse></g><g id="freepik--Window--inject-27"><path d="M420.25,188.93h0a.49.49,0,0,1-.46-.53l.43-6.77a.52.52,0,0,1,.53-.47.5.5,0,0,1,.47.54l-.44,6.77A.49.49,0,0,1,420.25,188.93Z" style="fill:#2AAC4D"></path><path d="M421.16,174.84h0a.5.5,0,0,1-.47-.53l1.48-23a.5.5,0,0,1,.53-.46.5.5,0,0,1,.47.53l-1.48,23A.5.5,0,0,1,421.16,174.84Z" style="fill:#2AAC4D"></path><path d="M393.13,326.72H217.69a13.46,13.46,0,0,1-13.55-14.48l13.23-205.82a15.72,15.72,0,0,1,15.42-14.49H408.23a13.46,13.46,0,0,1,13.55,14.49L408.55,312.24A15.72,15.72,0,0,1,393.13,326.72Z" style="fill:#fff"></path><path d="M393.13,327.72H217.69a14.46,14.46,0,0,1-14.55-15.55l13.23-205.81a16.71,16.71,0,0,1,16.42-15.43H408.23a14.46,14.46,0,0,1,14.55,15.55L409.55,312.3A16.71,16.71,0,0,1,393.13,327.72ZM232.79,92.93a14.68,14.68,0,0,0-14.42,13.55L205.14,312.3a12.46,12.46,0,0,0,12.55,13.42H393.13a14.68,14.68,0,0,0,14.42-13.55l13.23-205.81a12.46,12.46,0,0,0-12.55-13.43Z" style="fill:#2AAC4D"></path><path d="M408.23,91.93H232.79a15.72,15.72,0,0,0-15.42,14.49H421.78A13.46,13.46,0,0,0,408.23,91.93Z" style="fill:#2AAC4D"></path><path d="M268.08,130.77h-26.9a2.06,2.06,0,0,1-2.08-2.21h0a2.41,2.41,0,0,1,2.36-2.22h26.91a2.06,2.06,0,0,1,2.07,2.22h0A2.4,2.4,0,0,1,268.08,130.77Z" style="fill:#263238"></path><path d="M338.26,144.08H253.63a2.06,2.06,0,0,1-2.08-2.22h0a2.41,2.41,0,0,1,2.36-2.22h84.64a2.06,2.06,0,0,1,2.07,2.22h0A2.4,2.4,0,0,1,338.26,144.08Z" style="fill:#2AAC4D"></path><path d="M297.05,157.38H252.77a2,2,0,0,1-2.07-2.21h0a2.41,2.41,0,0,1,2.36-2.22h44.28a2.06,2.06,0,0,1,2.07,2.22h0A2.4,2.4,0,0,1,297.05,157.38Z" style="fill:#2AAC4D"></path><path d="M376.62,170.69H251.92a2.06,2.06,0,0,1-2.08-2.22h0a2.41,2.41,0,0,1,2.36-2.22H376.9a2.06,2.06,0,0,1,2.08,2.22h0A2.41,2.41,0,0,1,376.62,170.69Z" style="fill:#2AAC4D"></path><path d="M358.48,157.38H314.2a2.06,2.06,0,0,1-2.08-2.21h0a2.41,2.41,0,0,1,2.36-2.22h44.28a2.07,2.07,0,0,1,2.08,2.22h0A2.4,2.4,0,0,1,358.48,157.38Z" style="fill:#2AAC4D"></path><path d="M259.53,263.83H232.62a2.06,2.06,0,0,1-2.07-2.22h0a2.41,2.41,0,0,1,2.36-2.22h26.91a2.06,2.06,0,0,1,2.07,2.22h0A2.41,2.41,0,0,1,259.53,263.83Z" style="fill:#263238"></path><path d="M328.86,290.44H244.22a2.07,2.07,0,0,1-2.08-2.22h0A2.42,2.42,0,0,1,244.5,286h84.64a2.07,2.07,0,0,1,2.08,2.22h0A2.41,2.41,0,0,1,328.86,290.44Z" style="fill:#2AAC4D"></path><path d="M287.64,303.74H243.36a2.06,2.06,0,0,1-2.07-2.22h0a2.41,2.41,0,0,1,2.36-2.21h44.28a2.05,2.05,0,0,1,2.07,2.21h0A2.41,2.41,0,0,1,287.64,303.74Z" style="fill:#2AAC4D"></path><path d="M370.06,272.7H245.36a2.4,2.4,0,0,0-2.36,2.21h0a2.06,2.06,0,0,0,2.07,2.22H369.78a2.41,2.41,0,0,0,2.36-2.22h0A2.06,2.06,0,0,0,370.06,272.7Z" style="fill:#2AAC4D"></path><path d="M349.07,303.74H304.79a2.06,2.06,0,0,1-2.07-2.22h0a2.4,2.4,0,0,1,2.36-2.21h44.27a2.06,2.06,0,0,1,2.08,2.21h0A2.41,2.41,0,0,1,349.07,303.74Z" style="fill:#2AAC4D"></path><path d="M277.11,197.3H236.9a2.06,2.06,0,0,1-2.07-2.22h0a2.4,2.4,0,0,1,2.36-2.22H277.4a2.06,2.06,0,0,1,2.07,2.22h0A2.41,2.41,0,0,1,277.11,197.3Z" style="fill:#263238"></path><path d="M332.56,232.78H247.93a2.4,2.4,0,0,0-2.36,2.22h0a2.06,2.06,0,0,0,2.07,2.22h84.64a2.41,2.41,0,0,0,2.36-2.22h0A2.06,2.06,0,0,0,332.56,232.78Z" style="fill:#2AAC4D"></path><path d="M279.75,219.48h-31a2.4,2.4,0,0,0-2.36,2.21h0a2.06,2.06,0,0,0,2.08,2.22h31a2.41,2.41,0,0,0,2.36-2.22h0A2.06,2.06,0,0,0,279.75,219.48Z" style="fill:#2AAC4D"></path><path d="M307.81,206.17H249.64a2.4,2.4,0,0,0-2.36,2.22h0a2,2,0,0,0,2.07,2.21h58.18a2.4,2.4,0,0,0,2.36-2.21h0A2.07,2.07,0,0,0,307.81,206.17Z" style="fill:#2AAC4D"></path><path d="M382.32,206.17H324.15a2.4,2.4,0,0,0-2.36,2.22h0a2,2,0,0,0,2.07,2.21H382a2.41,2.41,0,0,0,2.36-2.21h0A2.07,2.07,0,0,0,382.32,206.17Z" style="fill:#2AAC4D"></path><path d="M354.48,219.48H296.9a2.4,2.4,0,0,0-2.36,2.21h0a2.06,2.06,0,0,0,2.08,2.22H354.2a2.41,2.41,0,0,0,2.36-2.22h0A2.06,2.06,0,0,0,354.48,219.48Z" style="fill:#2AAC4D"></path><path d="M236.59,98.44a4.35,4.35,0,0,1-4.28,4,3.73,3.73,0,0,1-3.77-4,4.35,4.35,0,0,1,4.29-4A3.72,3.72,0,0,1,236.59,98.44Z" style="fill:#fff"></path><path d="M244.9,95.16a3,3,0,0,1,2.22.94,3,3,0,0,1,.8,2.29,3.6,3.6,0,0,1-3.54,3.32,3,3,0,0,1-3-3.22,3.6,3.6,0,0,1,3.54-3.33m0-.75a4.35,4.35,0,0,0-4.29,4,3.73,3.73,0,0,0,3.77,4,4.35,4.35,0,0,0,4.28-4,3.72,3.72,0,0,0-3.76-4Z" style="fill:#fff"></path><path d="M260.74,98.44a4.36,4.36,0,0,1-4.29,4,3.73,3.73,0,0,1-3.77-4,4.36,4.36,0,0,1,4.29-4A3.74,3.74,0,0,1,260.74,98.44Z" style="fill:#fff;opacity:0.5"></path></g><g id="freepik--Code--inject-27"><path d="M349.3,185.17l35,4.47a12.72,12.72,0,0,1,10.84,15.27L385.2,257a14.77,14.77,0,0,1-16,11.83L206.47,248a12.71,12.71,0,0,1-10.84-15.26l10-52.12a14.77,14.77,0,0,1,16-11.83l106.28,13.6" style="fill:#fff"></path><path d="M370.46,269.46h0c-.44,0-.88,0-1.33-.11l-3.68-.47a.5.5,0,0,1-.44-.56.51.51,0,0,1,.56-.43l3.69.47c.41.05.82.09,1.23.1a.5.5,0,0,1,0,1Zm4.91-.74a.5.5,0,0,1-.16-1,14.15,14.15,0,0,0,4.23-2.29.5.5,0,0,1,.7.09.5.5,0,0,1-.08.7,15.45,15.45,0,0,1-4.53,2.45A.45.45,0,0,1,375.37,268.72Zm-14.84-.47h-.06l-5-.64a.5.5,0,0,1-.44-.56.51.51,0,0,1,.56-.43l5,.63a.51.51,0,0,1,.44.56A.51.51,0,0,1,360.53,268.25ZM350.61,267h-.06l-5-.64a.49.49,0,0,1-.43-.56.49.49,0,0,1,.55-.43l5,.64a.5.5,0,0,1-.06,1Zm-9.92-1.27h-.06l-5-.63a.5.5,0,0,1-.43-.56.5.5,0,0,1,.56-.44l4.95.64a.5.5,0,0,1-.06,1Zm-9.92-1.27h-.06l-5-.63a.5.5,0,0,1,.13-1l5,.64a.5.5,0,0,1-.07,1Zm-9.92-1.26h-.06l-5-.63a.5.5,0,0,1-.43-.56.5.5,0,0,1,.56-.44l5,.64a.5.5,0,0,1-.07,1Zm62.27-.5a.48.48,0,0,1-.28-.08.5.5,0,0,1-.14-.69,13.89,13.89,0,0,0,1.89-4.41.5.5,0,1,1,1,.23,15,15,0,0,1-2,4.73A.52.52,0,0,1,383.12,262.68Zm-72.18-.77h-.07l-5-.63a.5.5,0,0,1-.43-.56.49.49,0,0,1,.56-.43l5,.63a.5.5,0,0,1-.06,1ZM301,260.64H301l-5-.63a.5.5,0,0,1-.43-.56.5.5,0,0,1,.56-.43l5,.63a.5.5,0,0,1-.06,1Zm-9.92-1.27H291l-5-.64a.5.5,0,1,1,.13-1l5,.63a.5.5,0,0,1-.06,1Zm-9.92-1.27h-.07l-5-.64a.5.5,0,1,1,.13-1l5,.63a.5.5,0,0,1,.43.56A.5.5,0,0,1,281.18,258.1Zm-9.92-1.27h-.07l-5-.64a.5.5,0,1,1,.13-1l5,.63a.5.5,0,0,1,.43.56A.49.49,0,0,1,271.26,256.83Zm-9.92-1.27h-.06l-5-.64a.5.5,0,0,1-.44-.55.5.5,0,0,1,.56-.44l5,.64a.5.5,0,0,1,.44.56A.51.51,0,0,1,261.34,255.56Zm-9.92-1.27h-.06l-5-.63a.5.5,0,1,1,.12-1l5,.64a.5.5,0,0,1-.06,1ZM386,253.2h-.1a.48.48,0,0,1-.39-.58l.93-4.91a.51.51,0,0,1,.59-.4.5.5,0,0,1,.4.59l-.94,4.91A.5.5,0,0,1,386,253.2ZM241.5,253h-.06l-5-.63a.51.51,0,0,1-.44-.56.5.5,0,0,1,.56-.44l5,.64a.5.5,0,0,1,.44.56A.51.51,0,0,1,241.5,253Zm-9.92-1.27h-.06l-5-.63a.51.51,0,0,1-.44-.56.5.5,0,0,1,.56-.43l5,.63a.5.5,0,0,1,.44.56A.51.51,0,0,1,231.58,251.76Zm-9.92-1.27h-.06l-5-.63a.5.5,0,0,1-.43-.56.49.49,0,0,1,.56-.43l5,.63a.5.5,0,0,1-.07,1Zm-9.92-1.27h-.06l-5-.63a.5.5,0,0,1-.43-.56.5.5,0,0,1,.56-.43l5,.63a.5.5,0,0,1-.07,1ZM202,247.13a.52.52,0,0,1-.24,0,13.15,13.15,0,0,1-4-3.3.5.5,0,0,1,.78-.63,11.83,11.83,0,0,0,3.67,3,.51.51,0,0,1,.2.68A.49.49,0,0,1,202,247.13Zm185.88-3.75h-.1a.5.5,0,0,1-.4-.58l.94-4.91a.51.51,0,0,1,.59-.4.5.5,0,0,1,.4.58L388.4,243A.51.51,0,0,1,387.91,243.38Zm-192-3.81a.5.5,0,0,1-.48-.36,13.47,13.47,0,0,1-.55-3.85c0-.42,0-.86.06-1.29a.49.49,0,0,1,.54-.45.5.5,0,0,1,.45.55c0,.4-.05.8-.05,1.19a12.46,12.46,0,0,0,.51,3.56.5.5,0,0,1-.34.62Zm193.87-6h-.09a.5.5,0,0,1-.4-.58l.94-4.92a.5.5,0,0,1,1,.19l-.94,4.91A.49.49,0,0,1,389.78,233.56ZM196.31,229.7h-.09a.5.5,0,0,1-.4-.59l.94-4.91a.5.5,0,0,1,.58-.4.51.51,0,0,1,.4.59l-.94,4.91A.51.51,0,0,1,196.31,229.7Zm195.35-6h-.09a.5.5,0,0,1-.4-.59l.94-4.91a.48.48,0,0,1,.58-.39.5.5,0,0,1,.4.58l-.94,4.91A.49.49,0,0,1,391.66,223.74Zm-193.47-3.86h-.1a.5.5,0,0,1-.39-.59l.93-4.91a.51.51,0,0,1,.59-.4.51.51,0,0,1,.4.59l-.94,4.91A.51.51,0,0,1,198.19,219.88Zm195.35-6h-.1a.51.51,0,0,1-.39-.59l.94-4.91a.5.5,0,0,1,.58-.4.51.51,0,0,1,.4.59l-.94,4.91A.5.5,0,0,1,393.54,213.91Zm-193.47-3.86H200a.5.5,0,0,1-.4-.58l.94-4.91a.51.51,0,0,1,.59-.4.5.5,0,0,1,.4.59l-.94,4.91A.5.5,0,0,1,200.07,210.05Zm195.28-6h0a.49.49,0,0,1-.45-.54c0-.41.05-.82.05-1.22a12.78,12.78,0,0,0-.5-3.54.49.49,0,0,1,.34-.62.5.5,0,0,1,.62.34,13.61,13.61,0,0,1,.54,3.82c0,.43,0,.87-.06,1.31A.49.49,0,0,1,395.35,204.08Zm-193.41-3.85h-.09a.5.5,0,0,1-.4-.58l.94-4.91a.5.5,0,0,1,.59-.4.49.49,0,0,1,.39.58l-.94,4.91A.49.49,0,0,1,201.94,200.23Zm190.65-5.5a.5.5,0,0,1-.39-.18,11.86,11.86,0,0,0-3.67-3.05.5.5,0,1,1,.48-.88,13.15,13.15,0,0,1,4,3.3.5.5,0,0,1-.08.7A.45.45,0,0,1,392.59,194.73Zm-188.77-4.32h-.09a.5.5,0,0,1-.4-.59l.94-4.91a.5.5,0,0,1,1,.19l-.94,4.91A.49.49,0,0,1,203.82,190.41Zm180.2-.3H384l-5-.63a.51.51,0,0,1-.44-.56.5.5,0,0,1,.56-.43l5,.63a.5.5,0,0,1-.06,1Zm-9.92-1.27H374l-5-.63a.51.51,0,0,1-.44-.56.52.52,0,0,1,.56-.43l5,.63a.5.5,0,0,1-.06,1Zm-9.92-1.27h-.06l-5-.63a.49.49,0,0,1-.43-.56.5.5,0,0,1,.56-.43l5,.63a.5.5,0,0,1-.07,1Zm-9.92-1.27h-.06l-5-.64a.49.49,0,0,1-.43-.56.5.5,0,0,1,.56-.43l5,.63a.51.51,0,0,1,.43.56A.5.5,0,0,1,354.26,186.3Zm-29.78-3.81h-.07l-5-.64a.5.5,0,0,1-.44-.56.52.52,0,0,1,.56-.43l5,.63a.5.5,0,0,1,.43.56A.49.49,0,0,1,324.48,182.49Zm-9.92-1.27h-.06l-5-.64a.5.5,0,0,1-.44-.56.51.51,0,0,1,.56-.43l5,.64a.5.5,0,0,1,.44.55A.51.51,0,0,1,314.56,181.22Zm-108.85-.63h-.11a.51.51,0,0,1-.38-.6,15,15,0,0,1,2-4.74.5.5,0,0,1,.84.55,13.76,13.76,0,0,0-1.89,4.41A.51.51,0,0,1,205.71,180.59Zm98.93-.64h-.06l-5-.64a.5.5,0,0,1-.44-.56.52.52,0,0,1,.56-.43l5,.64a.5.5,0,0,1,.44.56A.51.51,0,0,1,304.64,180Zm-9.92-1.27h-.06l-5-.64a.48.48,0,0,1-.43-.55.5.5,0,0,1,.56-.44l5,.64a.5.5,0,0,1-.07,1Zm-9.92-1.27h-.06l-5-.63a.5.5,0,0,1,.13-1l5,.64a.5.5,0,0,1-.07,1Zm-9.92-1.26h-.06l-5-.63a.5.5,0,0,1-.43-.56.5.5,0,0,1,.56-.43l5,.63a.5.5,0,0,1-.07,1ZM265,174.88h-.06l-5-.63a.5.5,0,0,1-.43-.56.5.5,0,0,1,.56-.43l5,.63a.5.5,0,0,1-.07,1Zm-9.91-1.27H255l-5-.63a.5.5,0,1,1,.13-1l5,.63a.5.5,0,0,1-.06,1Zm-44-1.26a.51.51,0,0,1-.39-.19.5.5,0,0,1,.08-.7,15.55,15.55,0,0,1,4.52-2.46.5.5,0,0,1,.33.95,14.61,14.61,0,0,0-4.23,2.29A.51.51,0,0,1,211,172.35Zm34.1,0h-.07l-5-.64a.5.5,0,0,1-.43-.56.51.51,0,0,1,.56-.43l5,.63a.5.5,0,0,1-.06,1Zm-9.92-1.27h-.07l-5-.64a.5.5,0,0,1-.43-.56.51.51,0,0,1,.56-.43l5,.63a.5.5,0,0,1,.43.56A.5.5,0,0,1,235.21,171.07Zm-9.92-1.27h-.07l-3.67-.47a10.53,10.53,0,0,0-1.24-.1.5.5,0,0,1-.49-.52.5.5,0,0,1,.5-.48h0a12.3,12.3,0,0,1,1.34.11l3.67.46a.5.5,0,0,1,.43.56A.49.49,0,0,1,225.29,169.8Z" style="fill:#263238"></path><path d="M264.71,197.37l-37.3-4.77a2,2,0,0,1-1.66-2.34h0a2.27,2.27,0,0,1,2.46-1.81l37.29,4.77a2,2,0,0,1,1.66,2.34h0A2.26,2.26,0,0,1,264.71,197.37Z" style="fill:#263238"></path><path d="M311.91,237.39l-78.5-10a2.26,2.26,0,0,0-2.45,1.81h0a2,2,0,0,0,1.66,2.34l78.49,10a2.27,2.27,0,0,0,2.46-1.81h0A2,2,0,0,0,311.91,237.39Z" style="fill:#2AAC4D"></path><path d="M264.51,218.59l-28.72-3.68a2.26,2.26,0,0,0-2.45,1.81h0a2,2,0,0,0,1.66,2.34l28.72,3.67a2.25,2.25,0,0,0,2.45-1.81h0A1.93,1.93,0,0,0,264.51,218.59Z" style="fill:#2AAC4D"></path><path d="M292.12,209.37l-54-6.9a2.26,2.26,0,0,0-2.45,1.81h0a2,2,0,0,0,1.66,2.34l53.95,6.9a2.26,2.26,0,0,0,2.45-1.81h0A2,2,0,0,0,292.12,209.37Z" style="fill:#2AAC4D"></path><path d="M361.22,218.21l-54-6.9a2.26,2.26,0,0,0-2.45,1.81h0a2,2,0,0,0,1.66,2.34l53.95,6.9a2.26,2.26,0,0,0,2.45-1.81h0A2,2,0,0,0,361.22,218.21Z" style="fill:#2AAC4D"></path><path d="M333.82,227.45l-53.4-6.83a2.26,2.26,0,0,0-2.45,1.81h0a2,2,0,0,0,1.66,2.34L333,231.6a2.26,2.26,0,0,0,2.45-1.81h0A2,2,0,0,0,333.82,227.45Z" style="fill:#2AAC4D"></path><path d="M337,183.64l8.86-2.79s-4.35-1.38-6.72-.28a12.74,12.74,0,0,0-3.22,2.49l-4.18-2.22a1.2,1.2,0,0,0,.95-.55,1,1,0,0,0,.09-.79,2.12,2.12,0,0,0-1.11-1.26,1.76,1.76,0,0,0-2.35.26,1,1,0,0,0-.09.78,2.17,2.17,0,0,0,1.11,1.27l3.88,2.06a4,4,0,0,1,1.14.89,4.76,4.76,0,0,1-1.37.69l-4.39,1.38c-1.05.33-1.76,1.15-1.59,1.84s1.17,1,2.23.63,1.76-1.15,1.59-1.83a1.05,1.05,0,0,0-.78-.7l4.73-1.49a10.38,10.38,0,0,0,2.42,3c2,1.47,6.64.83,6.64.83Zm-7.29-4.51a.59.59,0,0,1,0-.41c.2-.34,1-.43,1.68,0a1.69,1.69,0,0,1,.88,1,.51.51,0,0,1,0,.4.72.72,0,0,1-.57.29,2,2,0,0,1-1.11-.24A1.72,1.72,0,0,1,329.67,179.13Zm1.63,7.23c.1.36-.41.95-1.22,1.21s-1.53.05-1.63-.32.42-.95,1.23-1.21S331.21,186,331.3,186.36Z" style="fill:#2AAC4D"></path></g><g id="freepik--Character--inject-27"><path d="M159.45,216.22s-17.15,59.59-24.11,88.85c-7.3,30.73-29,77.18-30.85,97.55-1.88.75-8-.09-11.21-1.66,0,0,3-64.95,20.64-94.53-4-72.79,15.77-90.21,15.77-90.21Z" style="fill:#2AAC4D"></path><path d="M137.24,246.15,146.88,261c-3.06,11.17-6.18,22.82-8.74,32.84C135.46,276.46,137.24,246.15,137.24,246.15Z" style="opacity:0.1"></path><path d="M160,201.69l-2.64-1.44a3.51,3.51,0,0,0-3.2-.06l-4.75,2.32a6.52,6.52,0,0,0-3.57,4.8l-.21,1.3c4.22,2.67,10.76,2.45,10.76,2.45l1.87.14a2.9,2.9,0,0,0,3.2-2.62l.33-3.7A3.32,3.32,0,0,0,160,201.69Z" style="fill:#ff8b7b"></path><path d="M149.35,203.28l-.17-.05c-1.61-.51-3.37-1-5-1.68a43.66,43.66,0,0,1-4.7-2,19.7,19.7,0,0,1-3.83-2.41,5.93,5.93,0,0,1-1.37-1.62c-.19-2.1-.33-4.2-.31-6.34s.11-4.56.32-6.85.48-4.58.84-6.86c.18-1.14.37-2.27.59-3.4l.35-1.67.33-1.55.07-.28A5.42,5.42,0,0,0,126,166c-.21.78-.36,1.37-.52,2s-.28,1.29-.41,1.93c-.26,1.29-.48,2.58-.68,3.87a75.61,75.61,0,0,0-.76,7.81,67.22,67.22,0,0,0,.06,7.9,61.57,61.57,0,0,0,1,7.94l0,.28a4,4,0,0,0,.22.72,12.37,12.37,0,0,0,2.53,3.74,17.18,17.18,0,0,0,3,2.4,24.79,24.79,0,0,0,6.14,2.58,39.47,39.47,0,0,0,6,1.15c1,.11,2,.17,3,.21s1.95.06,3,0a2.71,2.71,0,0,0,.7-5.29Z" style="fill:#ff8b7b"></path><path d="M133.07,153c4.87,4.52,7.73,11.55,4.79,25.47-4.77,2.71-16.84.23-16.84.23S119.68,158.07,133.07,153Z" style="fill:#263238"></path><path d="M145.31,132.26c.86,6,1.48,17-2.79,20.42,0,0,5.63-.15,16.49,8.56,4-4.46,1.67-6.33,1.67-6.33-6.44-2.37-6-7.23-4.68-11.67Z" style="fill:#ff8b7b"></path><path d="M169.56,128.86c-.13.8.16,1.55.66,1.67s1-.43,1.16-1.23-.16-1.55-.66-1.67S169.7,128.06,169.56,128.86Z" style="fill:#263238"></path><path d="M170.49,127.62l1.94-.1S171.23,128.79,170.49,127.62Z" style="fill:#263238"></path><path d="M169.27,130.36a23.75,23.75,0,0,0,1.86,5.78c-1.18.74-2.83-.13-2.83-.13Z" style="fill:#ff5652"></path><path d="M169.45,135a2.35,2.35,0,0,1-.54-.07,2.29,2.29,0,0,1-1.41-1.18,7.26,7.26,0,0,1,0-5.43c1.08-3.2,3.37-5.33,5.22-4.84a2.24,2.24,0,0,1,1.4,1.18,7.26,7.26,0,0,1,0,5.43C173.15,133,171.18,135,169.45,135Zm2.75-11.09c-1.49,0-3.33,2-4.21,4.57h0a6.73,6.73,0,0,0-.05,5,1.76,1.76,0,0,0,1.09.93c1.55.4,3.66-1.66,4.62-4.51a6.8,6.8,0,0,0,0-5,1.73,1.73,0,0,0-1.09-.93A1.75,1.75,0,0,0,172.2,123.92Zm-4.45,4.49Z" style="fill:#2AAC4D"></path><path d="M172.8,123.18a.47.47,0,0,0,.16-.31.48.48,0,0,0-.46-.48,5,5,0,0,0-4.11,1.6.43.43,0,0,0,.1.63.52.52,0,0,0,.69-.1,4,4,0,0,1,3.26-1.22A.54.54,0,0,0,172.8,123.18Z" style="fill:#263238"></path><path d="M144.72,119.81c-1.21,9.59-.64,15.11,1.84,19.62,5.13,9.35,17.45,9,21.44.11,3.59-8,5-22.36-3.4-28.35A12.39,12.39,0,0,0,144.72,119.81Z" style="fill:#ff8b7b"></path><path d="M141.11,119.89c-2.55,5.73,2.56,16.09,6.95,20.89,2.72,3,11.3-1.56,16.52-10.49A14.28,14.28,0,0,0,164,119Z" style="fill:#263238"></path><path d="M174.24,129l-.09,0c-.1,0-9.65-3.66-13.39-3.22a.26.26,0,0,1-.28-.22.25.25,0,0,1,.22-.28c3.86-.47,13.23,3.1,13.63,3.25a.26.26,0,0,1,.14.33A.25.25,0,0,1,174.24,129Z" style="fill:#2AAC4D"></path><path d="M162.5,123.55c-8.77,5-18.89,1.59-21.22-2.16s-.9-5.94-.09-6.85c-2.51-.67-4.1-4.1,3.29-7.5S173,103.89,166.14,100c6.53,1.12,4.8,4.48,2.34,4.92C181.5,107.75,173,121.17,162.5,123.55Z" style="fill:#263238"></path><path d="M141.64,113.42c-2.33,2.25-5.53.77-6-1C135.22,118.81,144.44,116.69,141.64,113.42Z" style="fill:#263238"></path><path d="M160.78,129.55a6.61,6.61,0,0,0,2.69,4.65c1.91,1.27,3.63-.83,3.74-3.46.11-2.38-.76-5.89-3-6.06S160.43,127.09,160.78,129.55Z" style="fill:#ff8b7b"></path><path d="M110.16,416.2c-7.38-1.1-7.52-2.32-11.48-3.71-3.39-1.2-4.35-1-7.08-1.95-2.29-.77-1.51-3,0-5.26.75-1.16.86-2.27,1.69-4.32l11.21,1.66c1.1,3.13,1.48,7.14,7.88,9.43C116.19,413.42,113.11,416.63,110.16,416.2Z" style="fill:#263238"></path><path d="M178.56,416.23c-7.34,0-8.75-.49-12.87-.63-3.54-.13-4.12.63-7.7.63-2.37,0-2.7-2.68-1.83-4.68.68-1.56.78-3.43,1.27-5.46h10.12c1.82,3.21,6.8,5.58,12.36,6C183.89,412.36,181.5,416.23,178.56,416.23Z" style="fill:#263238"></path><path d="M170,216.22s1.47,52.8-1.66,86.32c.2,31.47-.77,103.55-.77,103.55-.25,1.61-8.69,1-10.12,0,0,0-15.81-52.5-8.79-103.55-17.57-53.24-13.78-86.32-13.78-86.32Z" style="fill:#2AAC4D"></path><path d="M106,398.54a29.47,29.47,0,0,0-.23,4.21.88.88,0,0,1-.88.91c-4.2,0-10-1.79-11.84-2.4a.86.86,0,0,1-.58-.82l0-4a.87.87,0,0,1,1-.87l11.82,2A.87.87,0,0,1,106,398.54Z" style="fill:#2AAC4D"></path><path d="M106,398.54a29.47,29.47,0,0,0-.23,4.21.88.88,0,0,1-.88.91c-4.2,0-10-1.79-11.84-2.4a.86.86,0,0,1-.58-.82l0-4a.87.87,0,0,1,1-.87l11.82,2A.87.87,0,0,1,106,398.54Z" style="fill:#fff;opacity:0.5"></path><path d="M168.71,401.66c0,1.09.09,3,.19,4.48a.92.92,0,0,1-.8,1,60.4,60.4,0,0,1-11.16-.13.82.82,0,0,1-.74-.66l-.75-3.92a.93.93,0,0,1,.87-1.08l11.52-.45A.82.82,0,0,1,168.71,401.66Z" style="fill:#2AAC4D"></path><path d="M168.71,401.66c0,1.09.09,3,.19,4.48a.92.92,0,0,1-.8,1,60.4,60.4,0,0,1-11.16-.13.82.82,0,0,1-.74-.66l-.75-3.92a.93.93,0,0,1,.87-1.08l11.52-.45A.82.82,0,0,1,168.71,401.66Z" style="fill:#fff;opacity:0.5"></path><path d="M176.67,172a180.61,180.61,0,0,1-2.51,18.27c-1.29,7.9-3,12.85-4.18,26-4.53,3.26-35.46,1.76-40.29,0,.81-11.35,1.38-26.52-2.68-52.76a9.4,9.4,0,0,1,9.47-11.14c1.6,0,3.3.11,5,.23a130.06,130.06,0,0,1,18.16,2.24c1.95.42,4,.92,5.89,1.44A15.16,15.16,0,0,1,176.67,172Z" style="fill:#263238"></path><path d="M203.9,179.62a2.69,2.69,0,0,0-3.82.07l-.07.07c-1.47,1.52-3,3.14-4.56,4.62s-3.11,3-4.71,4.26a24.55,24.55,0,0,1-4.66,3.17,4.88,4.88,0,0,1-.75.3c-1-1.53-2-3.09-2.83-4.73-1.07-2-2.07-4.06-3-6.18s-1.75-4.26-2.52-6.44c-.38-1.08-.76-2.17-1.1-3.27l-.49-1.63-.44-1.53-.08-.28a5.42,5.42,0,0,0-10.48,2.73c.18.78.33,1.38.5,2s.37,1.27.56,1.9c.39,1.26.8,2.49,1.24,3.73a77.15,77.15,0,0,0,3,7.22,68.82,68.82,0,0,0,3.81,6.93,61,61,0,0,0,4.67,6.51l.12.15a4.18,4.18,0,0,0,.59.6,8.49,8.49,0,0,0,7,1.76,13.19,13.19,0,0,0,4.69-2,29.31,29.31,0,0,0,5.8-5.19,58.59,58.59,0,0,0,4.35-5.64,66.93,66.93,0,0,0,3.62-6A2.7,2.7,0,0,0,203.9,179.62Z" style="fill:#ff8b7b"></path><path d="M211,173.31l-3-.36a3.48,3.48,0,0,0-3,1.1l-3.57,3.9a6.53,6.53,0,0,0-1.57,5.78l.27,1.28c4.91.94,10.91-1.65,10.91-1.65l1.8-.55a2.91,2.91,0,0,0,2-3.61l-1-3.57A3.37,3.37,0,0,0,211,173.31Z" style="fill:#ff8b7b"></path><path d="M164.48,155.94c6.43,1.66,12.29,6.49,16.32,20.14-2.91,4.65-14.71,8.2-14.71,8.2S155.13,166.8,164.48,155.94Z" style="fill:#263238"></path></g></svg>